<?xml version="1.0" encoding="UTF-8" standalone="no"?>
<svg
   xmlns:dc="http://purl.org/dc/elements/1.1/"
   xmlns:cc="http://creativecommons.org/ns#"
   xmlns:rdf="http://www.w3.org/1999/02/22-rdf-syntax-ns#"
   xmlns:svg="http://www.w3.org/2000/svg"
   xmlns="http://www.w3.org/2000/svg"
   xmlns:sodipodi="http://sodipodi.sourceforge.net/DTD/sodipodi-0.dtd"
   xmlns:inkscape="http://www.inkscape.org/namespaces/inkscape"
   inkscape:export-ydpi="48"
   inkscape:export-xdpi="48"
   inkscape:export-filename="D:\Dev\rezonant\typescript-rtti-website\src\assets\favicon-32.png"
   width="64"
   height="64"
   viewBox="0 0 16.933333 16.933334"
   version="1.1"
   id="svg8"
   inkscape:version="1.0 (4035a4fb49, 2020-05-01)"
   sodipodi:docname="favicon.svg">
  <defs
     id="defs2" />
  <sodipodi:namedview
     id="base"
     pagecolor="#ffffff"
     bordercolor="#666666"
     borderopacity="1.0"
     inkscape:pageopacity="0.0"
     inkscape:pageshadow="2"
     inkscape:zoom="8"
     inkscape:cx="41.903727"
     inkscape:cy="38.676159"
     inkscape:document-units="mm"
     inkscape:current-layer="layer1"
     inkscape:document-rotation="0"
     showgrid="false"
     units="px"
     inkscape:window-width="1741"
     inkscape:window-height="1228"
     inkscape:window-x="944"
     inkscape:window-y="562"
     inkscape:window-maximized="0" />
  <metadata
     id="metadata5">
    <rdf:RDF>
      <cc:Work
         rdf:about="">
        <dc:format>image/svg+xml</dc:format>
        <dc:type
           rdf:resource="http://purl.org/dc/dcmitype/StillImage" />
        <dc:title></dc:title>
      </cc:Work>
    </rdf:RDF>
  </metadata>
  <g
     inkscape:label="Layer 1"
     inkscape:groupmode="layer"
     id="layer1">
    <rect
       ry="0.72760415"
       y="-0.033072926"
       x="-0.033072777"
       height="16.999479"
       width="16.999479"
       id="rect869"
       style="fill:#000000;stroke-width:0.277542;stroke-linecap:round" />
    <path
       id="path851"
       style="fill:#ffffff;fill-opacity:1;stroke-width:0.0536403"
       d="M 7.1839227,1.0085906 6.9023464,2.6982653 C 6.4329915,2.8234086 6.0262304,3.0111329 5.6194734,3.2301476 L 4.2427178,2.260121 2.2713947,4.2001746 3.2726912,5.5769298 C 3.0536766,5.98374 2.8659336,6.4217177 2.7407369,6.8910732 L 1.0510621,7.1414517 v 2.7535114 l 1.6896748,0.2816489 c 0.1251434,0.469354 0.3128858,0.876116 0.5319543,1.282872 l -1.0012965,1.4081 1.9400528,1.93998 1.4080259,-1.001296 c 0.406757,0.219014 0.8448606,0.406758 1.3142159,0.531955 l 0.2815761,1.658332 H 9.96885 l 0.281574,-1.689675 c 0.43808,-0.125141 0.876131,-0.312864 1.282937,-0.531882 l 1.408021,1.001297 1.93998,-1.939981 -1.001224,-1.4081 c 0.219014,-0.40681 0.406741,-0.813517 0.531883,-1.282873 L 16.070426,9.8949631 V 7.1414517 L 14.38075,6.859803 C 14.255606,6.3904477 14.067865,5.9524142 13.848797,5.5769298 L 14.850093,4.2001746 12.91004,2.2288509 11.50202,3.1988775 C 11.095266,2.979863 10.657179,2.7921199 10.219154,2.6669226 L 9.9375073,1.0085906 Z m 1.376466,2.2683898 a 5.2348568,5.2348568 0 0 1 3.427e-4,0 A 5.2348568,5.2348568 0 0 1 13.795593,8.5118375 5.2348568,5.2348568 0 0 1 8.5607496,13.746696 5.2348568,5.2348568 0 0 1 3.3258926,8.5118375 5.2348568,5.2348568 0 0 1 8.5603871,3.2769804 Z" />
    <path
       id="path899-3"
       style="fill:#ffffff;fill-opacity:1;stroke-width:0.0538415;stroke-linecap:round"
       d="M 8.5607503,4.3121848 A 4.1996531,4.1996531 0 0 0 4.3610973,8.5118376 4.1996531,4.1996531 0 0 0 8.5607503,12.711493 4.1996531,4.1996531 0 0 0 12.760391,8.5118376 4.1996531,4.1996531 0 0 0 8.5607503,4.3121848 Z m -2.518e-4,0.5715124 a 3.6281406,3.6281406 0 0 1 2.518e-4,0 A 3.6281406,3.6281406 0 0 1 12.188878,8.5118376 3.6281406,3.6281406 0 0 1 8.5607503,12.139979 3.6281406,3.6281406 0 0 1 4.9326098,8.5118376 3.6281406,3.6281406 0 0 1 8.5604985,4.8836972 Z" />
  </g>
</svg>
