<?xml version="1.0" encoding="UTF-8" standalone="no"?>
<svg
   xmlns:dc="http://purl.org/dc/elements/1.1/"
   xmlns:cc="http://creativecommons.org/ns#"
   xmlns:rdf="http://www.w3.org/1999/02/22-rdf-syntax-ns#"
   xmlns:svg="http://www.w3.org/2000/svg"
   xmlns="http://www.w3.org/2000/svg"
   xmlns:sodipodi="http://sodipodi.sourceforge.net/DTD/sodipodi-0.dtd"
   xmlns:inkscape="http://www.inkscape.org/namespaces/inkscape"
   sodipodi:docname="logo.svg"
   inkscape:version="1.0 (4035a4fb49, 2020-05-01)"
   id="svg8"
   version="1.1"
   viewBox="0 0 135.46667 135.46667"
   height="512"
   width="512">
  <defs
     id="defs2" />
  <sodipodi:namedview
     inkscape:window-maximized="0"
     inkscape:window-y="290"
     inkscape:window-x="4804"
     inkscape:window-height="1228"
     inkscape:window-width="1741"
     units="px"
     showgrid="false"
     inkscape:document-rotation="0"
     inkscape:current-layer="layer1"
     inkscape:document-units="mm"
     inkscape:cy="318.36366"
     inkscape:cx="290.93797"
     inkscape:zoom="1"
     inkscape:pageshadow="2"
     inkscape:pageopacity="0.0"
     borderopacity="1.0"
     bordercolor="#666666"
     pagecolor="#ffffff"
     id="base" />
  <metadata
     id="metadata5">
    <rdf:RDF>
      <cc:Work
         rdf:about="">
        <dc:format>image/svg+xml</dc:format>
        <dc:type
           rdf:resource="http://purl.org/dc/dcmitype/StillImage" />
        <dc:title></dc:title>
      </cc:Work>
    </rdf:RDF>
  </metadata>
  <g
     id="layer1"
     inkscape:groupmode="layer"
     inkscape:label="Layer 1">
    <path
       d="M 55.61331,2.7141418 53.153201,17.476688 c -4.100714,1.093367 -7.654553,2.733498 -11.208352,4.64701 L 29.91625,13.648657 12.692966,30.598739 21.441209,42.627335 c -1.913511,3.554266 -3.553807,7.380842 -4.647642,11.48156 L 2.0310228,56.296431 v 24.057197 l 14.7625442,2.46074 c 1.093368,4.100717 2.733661,7.65456 4.647642,11.208356 l -8.748243,12.302436 16.950079,16.94944 12.301804,-8.74824 c 3.553799,1.91351 7.381474,3.55381 11.482192,4.64765 l 2.460105,14.48871 h 24.057832 l 2.460109,-14.76255 c 3.827487,-1.09337 7.654717,-2.73348 11.208982,-4.64701 l 12.301811,8.74824 16.94944,-16.94944 -8.74761,-12.302447 c 1.9135,-3.554268 3.55365,-7.107633 4.64701,-11.208349 l 14.48934,-2.187536 V 56.296431 L 118.49151,53.83569 c -1.09337,-4.100718 -2.73365,-7.927779 -4.64763,-11.208355 l 8.74824,-12.028596 -16.95008,-17.223286 -12.301806,8.47504 C 89.786447,19.936984 85.958889,18.296688 82.131882,17.202848 L 79.671141,2.7141418 Z M 67.639378,22.532872 a 45.736504,45.736504 0 0 1 0.0031,0 A 45.736504,45.736504 0 0 1 113.37905,68.269376 45.736504,45.736504 0 0 1 67.642541,114.00589 45.736504,45.736504 0 0 1 21.906038,68.269376 45.736504,45.736504 0 0 1 67.639378,22.532872 Z"
       style="fill:#000000;stroke-width:0.468652"
       id="path851" />
    <path
       d="M 67.642541,15.328361 A 52.941018,52.941018 0 0 0 14.701526,68.269376 52.941018,52.941018 0 0 0 67.642541,121.21039 52.941018,52.941018 0 0 0 120.58356,68.269376 52.941018,52.941018 0 0 0 67.642541,15.328361 Z m -0.0031,7.204511 a 45.736504,45.736504 0 0 1 0.0031,0 A 45.736504,45.736504 0 0 1 113.37905,68.269376 45.736504,45.736504 0 0 1 67.642541,114.00589 45.736504,45.736504 0 0 1 21.906038,68.269376 45.736504,45.736504 0 0 1 67.639378,22.532872 Z"
       style="fill:#000000;stroke-width:0.67873;stroke-linecap:round"
       id="path899-3" />
    <g
       style="font-style:normal;font-variant:normal;font-weight:normal;font-stretch:normal;font-size:53.1469px;line-height:1.25;font-family:Bungee;-inkscape-font-specification:'Bungee, Normal';font-variant-ligatures:normal;font-variant-caps:normal;font-variant-numeric:normal;font-variant-east-asian:normal;letter-spacing:0px;word-spacing:0px;fill:#000000;fill-opacity:1;stroke:none;stroke-width:1.32868"
       id="text835"
       aria-label="TS">
      <path
         id="path1003"
         style="font-style:normal;font-variant:normal;font-weight:normal;font-stretch:normal;font-size:53.1469px;font-family:Bungee;-inkscape-font-specification:'Bungee, Normal';font-variant-ligatures:normal;font-variant-caps:normal;font-variant-numeric:normal;font-variant-east-asian:normal;fill:#000000;stroke-width:1.32868"
         d="M 49.560168,75.650017 H 40.95037 q -1.009791,0 -1.488113,-0.425175 -0.425175,-0.478323 -0.425175,-1.488114 V 47.6416 h -7.812595 q -1.009791,0 -1.488113,-0.425175 -0.425175,-0.478322 -0.425175,-1.488113 v -6.430775 q 0,-1.009791 0.425175,-1.434966 0.478322,-0.478322 1.488113,-0.478322 h 28.061564 q 1.009791,0 1.434966,0.478322 0.478322,0.425175 0.478322,1.434966 v 6.430775 q 0,1.009791 -0.478322,1.488113 -0.425175,0.425175 -1.434966,0.425175 h -7.812595 v 26.095128 q 0,1.009791 -0.478322,1.488114 -0.425175,0.425175 -1.434966,0.425175 z" />
      <path
         id="path1005"
         style="font-style:normal;font-variant:normal;font-weight:normal;font-stretch:normal;font-size:53.1469px;font-family:Bungee;-inkscape-font-specification:'Bungee, Normal';font-variant-ligatures:normal;font-variant-caps:normal;font-variant-numeric:normal;font-variant-east-asian:normal;fill:#000000;stroke-width:1.32868"
         d="m 81.382495,75.650017 h -16.79442 q -1.009791,0 -1.488113,-0.425175 -0.425176,-0.478323 -0.425176,-1.488114 v -6.218187 q 0,-1.009791 0.425176,-1.434966 0.478322,-0.478322 1.488113,-0.478322 h 14.296516 q 0.69091,0 1.009791,-0.425176 0.372028,-0.478322 0.372028,-1.116084 0,-0.903498 -0.372028,-1.328673 -0.318881,-0.425175 -1.009791,-0.478322 l -7.972035,-1.116085 q -3.720283,-0.531469 -6.0056,-2.444757 -2.23217,-1.913289 -2.23217,-6.377628 v -5.580425 q 0,-4.517486 2.92308,-6.909097 2.923079,-2.444757 8.078329,-2.444757 h 14.881132 q 1.009791,0 1.434966,0.478322 0.478322,0.425175 0.478322,1.434966 v 6.324481 q 0,1.009791 -0.478322,1.488113 -0.425175,0.425176 -1.434966,0.425176 H 76.174099 q -0.69091,0 -1.062938,0.478322 -0.372028,0.425175 -0.372028,1.116085 0,0.690909 0.372028,1.169231 0.372028,0.478323 1.062938,0.531469 l 7.918888,1.062938 q 3.720283,0.531469 6.0056,2.444758 2.285317,1.913288 2.285317,6.377628 v 5.580424 q 0,4.517487 -2.976227,6.962244 -2.923079,2.391611 -8.025182,2.391611 z" />
    </g>
    <g
       style="font-style:normal;font-variant:normal;font-weight:normal;font-stretch:normal;font-size:24.7121px;line-height:1.25;font-family:Bungee;-inkscape-font-specification:'Bungee, Normal';font-variant-ligatures:normal;font-variant-caps:normal;font-variant-numeric:normal;font-variant-east-asian:normal;letter-spacing:0px;word-spacing:0px;fill:#000000;fill-opacity:1;stroke:none;stroke-width:0.617805"
       id="text959"
       aria-label="RTTI">
      <path
         id="path994"
         style="font-style:normal;font-variant:normal;font-weight:normal;font-stretch:normal;font-size:24.7121px;font-family:Bungee;-inkscape-font-specification:'Bungee, Normal';font-variant-ligatures:normal;font-variant-caps:normal;font-variant-numeric:normal;font-variant-east-asian:normal;stroke-width:0.617805"
         d="m 50.3829,83.237162 v 3.163149 h 1.853407 q 0.642515,0 0.864924,-0.321258 0.222409,-0.345969 0.222409,-0.840211 v -0.840211 q 0,-0.494242 -0.222409,-0.8155 -0.222409,-0.345969 -0.864924,-0.345969 z m -0.889636,13.344534 h -3.805663 q -0.46953,0 -0.691939,-0.197697 Q 44.797965,96.16159 44.797965,95.69206 V 79.67862 q 0,-0.46953 0.197697,-0.667227 0.222409,-0.222409 0.691939,-0.222409 h 8.229129 q 2.767755,0 3.805663,1.161469 1.062621,1.136756 1.062621,2.965452 v 1.136756 q 0,1.037908 -0.321258,1.779271 -0.296545,0.716651 -1.06262,1.037909 1.334453,0.148272 2.149953,1.087332 0.840211,0.93906 0.840211,2.495922 v 5.238965 q 0,0.46953 -0.222409,0.691939 -0.197697,0.197697 -0.667227,0.197697 h -3.830375 q -0.46953,0 -0.691939,-0.197697 -0.197696,-0.222409 -0.197696,-0.691939 v -3.780951 q 0,-0.543666 -0.222409,-0.790787 -0.197697,-0.271833 -0.716651,-0.271833 H 50.3829 v 4.843571 q 0,0.46953 -0.222409,0.691939 -0.197697,0.197697 -0.667227,0.197697 z" />
      <path
         id="path996"
         style="font-style:normal;font-variant:normal;font-weight:normal;font-stretch:normal;font-size:24.7121px;font-family:Bungee;-inkscape-font-specification:'Bungee, Normal';font-variant-ligatures:normal;font-variant-caps:normal;font-variant-numeric:normal;font-variant-east-asian:normal;stroke-width:0.617805"
         d="m 69.356814,96.581696 h -4.00336 q -0.46953,0 -0.691939,-0.197697 Q 64.463818,96.16159 64.463818,95.69206 V 83.558419 h -3.632679 q -0.469529,0 -0.691938,-0.197696 -0.197697,-0.222409 -0.197697,-0.691939 V 79.67862 q 0,-0.46953 0.197697,-0.667227 0.222409,-0.222409 0.691938,-0.222409 h 13.047989 q 0.46953,0 0.667226,0.222409 0.222409,0.197697 0.222409,0.667227 v 2.990164 q 0,0.46953 -0.222409,0.691939 -0.197696,0.197696 -0.667226,0.197696 H 70.246449 V 95.69206 q 0,0.46953 -0.222409,0.691939 -0.197696,0.197697 -0.667226,0.197697 z" />
      <path
         id="path998"
         style="font-style:normal;font-variant:normal;font-weight:normal;font-stretch:normal;font-size:24.7121px;font-family:Bungee;-inkscape-font-specification:'Bungee, Normal';font-variant-ligatures:normal;font-variant-caps:normal;font-variant-numeric:normal;font-variant-east-asian:normal;stroke-width:0.617805"
         d="m 85.574129,96.581696 h -4.00336 q -0.46953,0 -0.691939,-0.197697 Q 80.681134,96.16159 80.681134,95.69206 V 83.558419 h -3.632679 q -0.46953,0 -0.691939,-0.197696 Q 76.15882,83.138314 76.15882,82.668784 V 79.67862 q 0,-0.46953 0.197696,-0.667227 0.222409,-0.222409 0.691939,-0.222409 h 13.047988 q 0.46953,0 0.667227,0.222409 0.222409,0.197697 0.222409,0.667227 v 2.990164 q 0,0.46953 -0.222409,0.691939 -0.197697,0.197696 -0.667227,0.197696 H 86.463765 V 95.69206 q 0,0.46953 -0.222409,0.691939 -0.197697,0.197697 -0.667227,0.197697 z" />
      <path
         id="path1000"
         style="font-style:normal;font-variant:normal;font-weight:normal;font-stretch:normal;font-size:24.7121px;font-family:Bungee;-inkscape-font-specification:'Bungee, Normal';font-variant-ligatures:normal;font-variant-caps:normal;font-variant-numeric:normal;font-variant-east-asian:normal;stroke-width:0.617805"
         d="m 93.883573,96.581696 q -0.46953,0 -0.691938,-0.197697 -0.197697,-0.222409 -0.197697,-0.691939 v -2.94074 q 0,-0.46953 0.197697,-0.667226 0.222408,-0.222409 0.691938,-0.222409 h 2.446498 v -8.303266 h -2.446498 q -0.46953,0 -0.691938,-0.197696 -0.197697,-0.222409 -0.197697,-0.691939 V 79.67862 q 0,-0.46953 0.197697,-0.667227 0.222408,-0.222409 0.691938,-0.222409 h 10.527357 q 0.46953,0 0.66722,0.222409 0.22241,0.197697 0.22241,0.667227 v 2.990164 q 0,0.46953 -0.22241,0.691939 -0.19769,0.197696 -0.66722,0.197696 h -2.39708 v 8.303266 h 2.39708 q 0.46953,0 0.66722,0.222409 0.22241,0.197696 0.22241,0.667226 v 2.94074 q 0,0.46953 -0.22241,0.691939 -0.19769,0.197697 -0.66722,0.197697 z" />
    </g>
  </g>
</svg>
